<?xml version="1.0" encoding="UTF-8"?>
<svg version="1.1" xmlns="http://www.w3.org/2000/svg" width="115" height="53">
<path d="M0 0 C5.94 0 11.88 0 18 0 C21.08035714 9.10714286 21.08035714 9.10714286 22 13 C22.391875 12.071875 22.78375 11.14375 23.1875 10.1875 C25.22562612 6.60320923 26.3133886 5.71127829 30 4 C33.48046875 3.671875 33.48046875 3.671875 37.1875 3.75 C38.41855469 3.76546875 39.64960937 3.7809375 40.91796875 3.796875 C44 4 44 4 46 5 C46.33 3.35 46.66 1.7 47 0 C49.79296058 -0.18314496 52.24636362 -0.34352295 55 0 C57.74045459 2.46640913 58.76025194 5.56685152 60 9 C60.515625 8.360625 61.03125 7.72125 61.5625 7.0625 C66.38754975 2.97976559 73.88579685 3.55389934 80 4 C81 5 81 5 81.11352539 7.04125977 C81.10567017 8.35308228 81.10567017 8.35308228 81.09765625 9.69140625 C81.09282227 11.10776367 81.09282227 11.10776367 81.08789062 12.55273438 C81.07532227 14.04256836 81.07532227 14.04256836 81.0625 15.5625 C81.05798828 16.55958984 81.05347656 17.55667969 81.04882812 18.58398438 C81.03700007 21.05604849 81.02051849 23.52799518 81 26 C80.34 26 79.68 26 79 26 C79.01047363 26.7113208 79.02094727 27.4226416 79.03173828 28.15551758 C79.07328001 31.37447586 79.09932039 34.59337776 79.125 37.8125 C79.14175781 38.93205078 79.15851563 40.05160156 79.17578125 41.20507812 C79.18222656 42.27822266 79.18867187 43.35136719 79.1953125 44.45703125 C79.20578613 45.44678955 79.21625977 46.43654785 79.22705078 47.45629883 C79 50 79 50 77 53 C74.28515625 53.43359375 74.28515625 53.43359375 71.0625 53.4375 C70.00160156 53.45683594 68.94070312 53.47617187 67.84765625 53.49609375 C65 53 65 53 63.1953125 51.17578125 C61.74625088 48.53811027 60.8512773 45.88124626 60 43 C58.02 43 56.04 43 54 43 C52.89155081 39.67465243 53.15545644 37.37817425 54 34 C53.34 34 52.68 34 52 34 C52.020625 35.11375 52.04125 36.2275 52.0625 37.375 C52 41 52 41 51 43 C48.69 43 46.38 43 44 43 C43.67 42.01 43.34 41.02 43 40 C42.484375 40.495 41.96875 40.99 41.4375 41.5 C38.09971339 43.55402253 35.85600245 43.41314312 32 43 C29.5625 41.5 29.5625 41.5 28 40 C27.34 40.99 26.68 41.98 26 43 C22.375 43.1875 22.375 43.1875 19 43 C18.67 42.01 18.34 41.02 18 40 C17.67 40.99 17.34 41.98 17 43 C14.69 43 12.38 43 10 43 C9.505 41.515 9.505 41.515 9 40 C8.67 40.99 8.34 41.98 8 43 C5.69 43 3.38 43 1 43 C0.12733788 37.76100772 -0.13410177 32.74677147 -0.09765625 27.44140625 C-0.0962413 26.65225327 -0.09482635 25.86310028 -0.09336853 25.05003357 C-0.08781555 22.55414885 -0.07527208 20.05835715 -0.0625 17.5625 C-0.05747891 15.86002735 -0.05291707 14.15755327 -0.04882812 12.45507812 C-0.03871669 8.30332161 -0.01913255 4.15176371 0 0 Z M45 14 C45 17.63 45 21.26 45 25 C45.99 24.34 46.98 23.68 48 23 C47.87625 21.700625 47.7525 20.40125 47.625 19.0625 C47.55539063 18.33160156 47.48578125 17.60070312 47.4140625 16.84765625 C47.27742188 16.23792969 47.14078125 15.62820313 47 15 C46.34 14.67 45.68 14.34 45 14 Z M58 13 C57.01 13.495 57.01 13.495 56 14 C56 14.99 56 15.98 56 17 C56.99 16.67 57.98 16.34 59 16 C58.67 15.01 58.34 14.02 58 13 Z M60 23 C59.06934867 25.60582371 58.85082593 26.64198224 59.9375 29.25 C60.288125 29.8275 60.63875 30.405 61 31 C61.28875 30.360625 61.5775 29.72125 61.875 29.0625 C63 27 63 27 65 26 C64.01 26 63.02 26 62 26 C61.67 25.01 61.34 24.02 61 23 C60.67 23 60.34 23 60 23 Z M27 26 C27 27.65 27 29.3 27 31 C27.99 29.68 28.98 28.36 30 27 C29.01 26.67 28.02 26.34 27 26 Z M41 26 C41.66 27.32 42.32 28.64 43 30 C43.33 28.68 43.66 27.36 44 26 C43.01 26 42.02 26 41 26 Z M61 37 C61 38.32 61 39.64 61 41 C61.99 40.67 62.98 40.34 64 40 C63.34 40 62.68 40 62 40 C61.67 39.01 61.34 38.02 61 37 Z M70 42 C70.33 43.32 70.66 44.64 71 46 C71.33 44.68 71.66 43.36 72 42 C71.34 42 70.68 42 70 42 Z " fill="#1C1C1C" transform="translate(0,0)"/>
<path d="M0 0 C3.0625 0.125 3.0625 0.125 5.0625 1.125 C5.825625 0.939375 6.58875 0.75375 7.375 0.5625 C10.0625 0.125 10.0625 0.125 12.625 1.1875 C13.429375 1.496875 14.23375 1.80625 15.0625 2.125 C16.41227849 1.49229133 17.74602881 0.82437532 19.0625 0.125 C22.48965884 0.21067897 23.72557243 0.79675414 26.19433594 3.2019043 C28.50891282 6.82349721 28.57633208 9.6782397 28.453125 13.83203125 C28.44746521 14.55742599 28.44180542 15.28282074 28.43597412 16.03019714 C28.41369099 18.33332008 28.36351487 20.63485224 28.3125 22.9375 C28.29242434 24.50453472 28.27417543 26.07159399 28.2578125 27.63867188 C28.21385337 31.46805519 28.14488623 35.29625846 28.0625 39.125 C25.7525 39.125 23.4425 39.125 21.0625 39.125 C20.0725 42.425 19.0825 45.725 18.0625 49.125 C13.1125 49.125 8.1625 49.125 3.0625 49.125 C-0.01442308 42.725 -0.01442308 42.725 0.375 39.6875 C0.601875 39.171875 0.82875 38.65625 1.0625 38.125 C0.27875 38.021875 -0.505 37.91875 -1.3125 37.8125 C-3.9375 37.125 -3.9375 37.125 -5.9375 34.125 C-6.39318553 26.94795282 -6.39318553 26.94795282 -4.9309082 24.30712891 C-3.76149585 21.73838779 -3.72181205 19.9871733 -3.77734375 17.17578125 C-3.7937793 15.78069336 -3.7937793 15.78069336 -3.81054688 14.35742188 C-3.83181641 13.39384766 -3.85308594 12.43027344 -3.875 11.4375 C-3.90927199 9.51699938 -3.93944909 7.59641977 -3.96484375 5.67578125 C-3.98281006 4.82669189 -4.00077637 3.97760254 -4.01928711 3.1027832 C-3.88557413 -0.13067607 -3.27728967 0.13945913 0 0 Z M5.0625 10.125 C5.0625 13.425 5.0625 16.725 5.0625 20.125 C6.0525 20.125 7.0425 20.125 8.0625 20.125 C8.083125 18.84625 8.10375 17.5675 8.125 16.25 C8.13660156 15.53070312 8.14820312 14.81140625 8.16015625 14.0703125 C8.18899242 12.04314596 8.18899242 12.04314596 7.0625 10.125 C6.4025 10.125 5.7425 10.125 5.0625 10.125 Z M17.0625 10.125 C15.80300951 11.15906673 15.80300951 11.15906673 15.96484375 13.41015625 C15.97644531 14.32667969 15.98804687 15.24320313 16 16.1875 C16.00902344 17.10660156 16.01804687 18.02570312 16.02734375 18.97265625 C16.03894531 19.68292969 16.05054687 20.39320312 16.0625 21.125 C16.3925 20.465 16.7225 19.805 17.0625 19.125 C17.7225 19.125 18.3825 19.125 19.0625 19.125 C19.0625 16.485 19.0625 13.845 19.0625 11.125 C18.4025 10.795 17.7425 10.465 17.0625 10.125 Z M12.0625 23.125 C12.3925 24.115 12.7225 25.105 13.0625 26.125 C13.3925 25.135 13.7225 24.145 14.0625 23.125 C13.4025 23.125 12.7425 23.125 12.0625 23.125 Z M9.0625 39.125 C9.0625 39.785 9.0625 40.445 9.0625 41.125 C10.0525 41.125 11.0425 41.125 12.0625 41.125 C12.0625 40.465 12.0625 39.805 12.0625 39.125 C11.0725 39.125 10.0825 39.125 9.0625 39.125 Z " fill="#060606" transform="translate(85.9375,3.875)"/>
<path d="M0 0 C5.94 0 11.88 0 18 0 C21.08035714 9.10714286 21.08035714 9.10714286 22 13 C22.391875 12.071875 22.78375 11.14375 23.1875 10.1875 C25.21298547 6.62543935 26.36141069 5.73729828 30 4 C33.04296875 3.6015625 33.04296875 3.6015625 36.1875 3.625 C37.75564453 3.61339844 37.75564453 3.61339844 39.35546875 3.6015625 C40.22816406 3.73304687 41.10085937 3.86453125 42 4 C44.52775351 7.79163027 44.22443035 10.80874031 44.125 15.1875 C44.11597656 15.93708984 44.10695312 16.68667969 44.09765625 17.45898438 C44.07412578 19.30612654 44.03825561 21.15310412 44 23 C42.53626953 23.19916016 42.53626953 23.19916016 41.04296875 23.40234375 C39.77066406 23.57894531 38.49835937 23.75554688 37.1875 23.9375 C35.92292969 24.11152344 34.65835938 24.28554688 33.35546875 24.46484375 C30.01678297 24.90392455 30.01678297 24.90392455 27 26 C26.90912109 27.49853516 26.90912109 27.49853516 26.81640625 29.02734375 C26.73261719 30.31769531 26.64882813 31.60804687 26.5625 32.9375 C26.48128906 34.22527344 26.40007813 35.51304688 26.31640625 36.83984375 C26 40 26 40 25 41 C23.35 41 21.7 41 20 41 C19.67 37.37 19.34 33.74 19 30 C18.67 30 18.34 30 18 30 C17.67 32.97 17.34 35.94 17 39 C14.36 39.33 11.72 39.66 9 40 C8.67 40.99 8.34 41.98 8 43 C5.69 43 3.38 43 1 43 C0.12733788 37.76100772 -0.13410177 32.74677147 -0.09765625 27.44140625 C-0.0962413 26.65225327 -0.09482635 25.86310028 -0.09336853 25.05003357 C-0.08781555 22.55414885 -0.07527208 20.05835715 -0.0625 17.5625 C-0.05747891 15.86002735 -0.05291707 14.15755327 -0.04882812 12.45507812 C-0.03871669 8.30332161 -0.01913255 4.15176371 0 0 Z " fill="#151515" transform="translate(0,0)"/>
<path d="M0 0 C2.64 0 5.28 0 8 0 C8.495 1.98 8.495 1.98 9 4 C6.69 3.67 4.38 3.34 2 3 C2 4.65 2 6.3 2 8 C1.01 8 0.02 8 -1 8 C-0.505 8.928125 -0.505 8.928125 0 9.875 C1.42810682 14.33783382 1.12475328 18.32175185 1 23 C4.3 23.33 7.6 23.66 11 24 C11 21.03 11 18.06 11 15 C11.66 15 12.32 15 13 15 C13.474375 16.11375 13.94875 17.2275 14.4375 18.375 C15.25306463 20.26710994 16.07856355 22.15712709 17 24 C16.34 24.66 15.68 25.32 15 26 C14.505 25.01 14.505 25.01 14 24 C13.67 25.32 13.34 26.64 13 28 C7.72 28 2.44 28 -3 28 C-3 27.34 -3 26.68 -3 26 C-3.99 26.495 -3.99 26.495 -5 27 C-4.26330078 27.82757812 -4.26330078 27.82757812 -3.51171875 28.671875 C-1.69890576 31.46370069 -1.6827049 32.96185741 -1.8125 36.25 C-1.85310547 37.58804688 -1.85310547 37.58804688 -1.89453125 38.953125 C-1.92933594 39.62859375 -1.96414062 40.3040625 -2 41 C-0.35 41 1.3 41 3 41 C3 40.34 3 39.68 3 39 C3.66 39 4.32 39 5 39 C4.67 40.32 4.34 41.64 4 43 C1.69 43 -0.62 43 -3 43 C-3.33 42.01 -3.66 41.02 -4 40 C-4.515625 40.495 -5.03125 40.99 -5.5625 41.5 C-8.90028661 43.55402253 -11.14399755 43.41314312 -15 43 C-17.4375 41.5 -17.4375 41.5 -19 40 C-19.66 40.99 -20.32 41.98 -21 43 C-24.625 43.1875 -24.625 43.1875 -28 43 C-28.495 41.515 -28.495 41.515 -29 40 C-29.33 40.99 -29.66 41.98 -30 43 C-32.31 43 -34.62 43 -37 43 C-37 42.01 -37 41.02 -37 40 C-33.535 39.505 -33.535 39.505 -30 39 C-30 36.03 -30 33.06 -30 30 C-29.01 30 -28.02 30 -27 30 C-27 33.63 -27 37.26 -27 41 C-24.525 40.505 -24.525 40.505 -22 40 C-21.67 35.38 -21.34 30.76 -21 26 C-20.34 26.66 -19.68 27.32 -19 28 C-19 27.01 -19 26.02 -19 25 C-17.64832143 24.65671655 -16.29345725 24.32597303 -14.9375 24 C-14.18339844 23.814375 -13.42929687 23.62875 -12.65234375 23.4375 C-9.4079743 22.90234628 -6.28217148 22.93572247 -3 23 C-3.14086602 20.39547729 -3.28748464 17.79149803 -3.4375 15.1875 C-3.47681641 14.44951172 -3.51613281 13.71152344 -3.55664062 12.95117188 C-3.74381035 9.76928658 -3.98720793 7.03837622 -5 4 C-3.68 4.33 -2.36 4.66 -1 5 C-0.67 3.35 -0.34 1.7 0 0 Z M-2 14 C-2 17.63 -2 21.26 -2 25 C-1.01 24.34 -0.02 23.68 1 23 C0.87625 21.700625 0.7525 20.40125 0.625 19.0625 C0.55539063 18.33160156 0.48578125 17.60070312 0.4140625 16.84765625 C0.27742188 16.23792969 0.14078125 15.62820313 0 15 C-0.66 14.67 -1.32 14.34 -2 14 Z " fill="#2B2B2B" transform="translate(47,0)"/>
<path d="M0 0 C1.56814453 -0.01160156 1.56814453 -0.01160156 3.16796875 -0.0234375 C4.47701172 0.17378906 4.47701172 0.17378906 5.8125 0.375 C8.34025351 4.16663027 8.03693035 7.18374031 7.9375 11.5625 C7.92847656 12.31208984 7.91945312 13.06167969 7.91015625 13.83398438 C7.88662578 15.68112654 7.85075561 17.52810412 7.8125 19.375 C6.34876953 19.57416016 6.34876953 19.57416016 4.85546875 19.77734375 C3.58316406 19.95394531 2.31085937 20.13054688 1 20.3125 C-0.26457031 20.48652344 -1.52914062 20.66054688 -2.83203125 20.83984375 C-6.17071703 21.27892455 -6.17071703 21.27892455 -9.1875 22.375 C-9.8475 22.045 -10.5075 21.715 -11.1875 21.375 C-13.24430871 21.73677382 -13.24430871 21.73677382 -15.5 22.375 C-18.42345389 23.09066151 -19.95132133 23.42330927 -22.9375 22.8125 C-25.34926497 22.09786252 -25.34926497 22.09786252 -27.875 23.8125 C-28.638125 24.328125 -29.40125 24.84375 -30.1875 25.375 C-30.8475 25.375 -31.5075 25.375 -32.1875 25.375 C-32.5175 24.385 -32.8475 23.395 -33.1875 22.375 C-29.00715215 19.18997307 -26.47435274 17.78757192 -21.1875 18.375 C-20.1975 18.705 -19.2075 19.035 -18.1875 19.375 C-15.5305809 18.49585312 -15.5305809 18.49585312 -13.1875 17.375 C-13.6 16.55 -14.0125 15.725 -14.4375 14.875 C-15.35440842 10.59609403 -14.53354862 8.97985079 -12.62109375 5.20703125 C-9.18259376 0.81287186 -5.39178771 -0.04018724 0 0 Z " fill="#090909" transform="translate(36.1875,3.625)"/>
<path d="M0 0 C0.33 0 0.66 0 1 0 C1 4.62 1 9.24 1 14 C2.98 14 4.96 14 7 14 C7 10.37 7 6.74 7 3 C8.65 3 10.3 3 12 3 C11.67 3.99 11.34 4.98 11 6 C11 5.34 11 4.68 11 4 C10.34 4 9.68 4 9 4 C9 7.3 9 10.6 9 14 C11.97 14 14.94 14 18 14 C18 10.37 18 6.74 18 3 C19.65 3 21.3 3 23 3 C22.67 3.66 22.34 4.32 22 5 C21.67 5 21.34 5 21 5 C21 8.63 21 12.26 21 16 C19.35 16.33 17.7 16.66 16 17 C16.33 17.99 16.66 18.98 17 20 C17.07029121 22.57265818 17.09370832 25.11641431 17.0625 27.6875 C17.05798828 28.38939453 17.05347656 29.09128906 17.04882812 29.81445312 C17.03706927 31.54300538 17.01913454 33.27151365 17 35 C16.67 34.34 16.34 33.68 16 33 C15.01 33 14.02 33 13 33 C12.67 33.66 12.34 34.32 12 35 C11.505 33.515 11.505 33.515 11 32 C9.35 32 7.7 32 6 32 C6 34.31 6 36.62 6 39 C4 36 4 36 4.375 33.8125 C4.58125 33.214375 4.7875 32.61625 5 32 C4.21625 31.896875 3.4325 31.79375 2.625 31.6875 C0 31 0 31 -2 28 C-2.45780193 20.78961961 -2.45780193 20.78961961 -0.9921875 18.26171875 C0.50756088 14.84300099 0.2091052 11.41181084 0.125 7.75 C0.11146484 6.63238281 0.11146484 6.63238281 0.09765625 5.4921875 C0.07418358 3.66131941 0.03831525 1.83061762 0 0 Z " fill="#181818" transform="translate(82,10)"/>
<path d="M0 0 C0 5.28 0 10.56 0 16 C-1.98 16 -3.96 16 -6 16 C-6 16.66 -6 17.32 -6 18 C-4.68 18.33 -3.36 18.66 -2 19 C-3.65 19 -5.3 19 -7 19 C-7.33 18.01 -7.66 17.02 -8 16 C-9.98 16 -11.96 16 -14 16 C-14 16.66 -14 17.32 -14 18 C-14.66 18 -15.32 18 -16 18 C-16.13277344 17.43796875 -16.26554687 16.8759375 -16.40234375 16.296875 C-17.02437111 13.90633847 -17.77115041 11.58964225 -18.5625 9.25 C-18.83191406 8.45078125 -19.10132813 7.6515625 -19.37890625 6.828125 C-19.58386719 6.22484375 -19.78882813 5.6215625 -20 5 C-13.76973462 -1.43794089 -8.85760487 -0.08052368 0 0 Z " fill="#070707" transform="translate(79,8)"/>
<path d="M0 0 C3.38799606 2.76901269 4.87378156 4.20018225 5.56762695 8.59692383 C5.56684323 9.96721468 5.53905223 11.33768106 5.48828125 12.70703125 C5.47766914 13.79512337 5.47766914 13.79512337 5.46684265 14.90519714 C5.43898406 17.20870703 5.37627191 19.50973251 5.3125 21.8125 C5.28740563 23.37952203 5.26459444 24.9465824 5.24414062 26.51367188 C5.18918681 30.34339656 5.10298226 34.17127797 5 38 C2.69 38 0.38 38 -2 38 C-2.99 41.3 -3.98 44.6 -5 48 C-6.32 48 -7.64 48 -9 48 C-9 47.34 -9 46.68 -9 46 C-8.01 46 -7.02 46 -6 46 C-5.95101562 44.84242187 -5.90203125 43.68484375 -5.8515625 42.4921875 C-5.77648522 40.9531033 -5.70093957 39.4140419 -5.625 37.875 C-5.5940625 37.11445312 -5.563125 36.35390625 -5.53125 35.5703125 C-5.30084632 31.11584131 -5.01134341 27.05970542 -3 23 C-0.375 21.625 -0.375 21.625 2 21 C1.85924795 18.06217531 1.7126162 15.12484829 1.5625 12.1875 C1.52318359 11.35412109 1.48386719 10.52074219 1.44335938 9.66210938 C1.40146484 8.85966797 1.35957031 8.05722656 1.31640625 7.23046875 C1.27974854 6.49207764 1.24309082 5.75368652 1.20532227 4.99291992 C1.05157859 2.792505 1.05157859 2.792505 0 0 Z " fill="#404040" transform="translate(109,5)"/>
<path d="M0 0 C0.33 0 0.66 0 1 0 C1 4.62 1 9.24 1 14 C2.98 14 4.96 14 7 14 C7 10.37 7 6.74 7 3 C8.65 3 10.3 3 12 3 C11.67 3.99 11.34 4.98 11 6 C11 5.34 11 4.68 11 4 C10.34 4 9.68 4 9 4 C9 7.3 9 10.6 9 14 C11.97 14 14.94 14 18 14 C18 10.37 18 6.74 18 3 C19.65 3 21.3 3 23 3 C22.67 3.66 22.34 4.32 22 5 C21.67 5 21.34 5 21 5 C21 8.63 21 12.26 21 16 C19.35 16.33 17.7 16.66 16 17 C16.33 17.99 16.66 18.98 17 20 C17.07029121 22.57265818 17.09370832 25.11641431 17.0625 27.6875 C17.05798828 28.38939453 17.05347656 29.09128906 17.04882812 29.81445312 C17.03706927 31.54300538 17.01913454 33.27151365 17 35 C16.67 34.34 16.34 33.68 16 33 C15.01 33 14.02 33 13 33 C12.67 33.66 12.34 34.32 12 35 C11.505 33.515 11.505 33.515 11 32 C9.35 32 7.7 32 6 32 C6 34.31 6 36.62 6 39 C4 36 4 36 4.375 32.8125 C4.58125 31.884375 4.7875 30.95625 5 30 C8.3 30.33 11.6 30.66 15 31 C14.67 26.38 14.34 21.76 14 17 C12.081875 17.12375 10.16375 17.2475 8.1875 17.375 C6.56908203 17.47941406 6.56908203 17.47941406 4.91796875 17.5859375 C1.81373814 17.81195733 1.81373814 17.81195733 -1 20 C-0.83701416 19.42024414 -0.67402832 18.84048828 -0.50610352 18.24316406 C0.27677556 14.77326877 0.10312359 11.287377 0.0625 7.75 C0.05798828 7.00492188 0.05347656 6.25984375 0.04882812 5.4921875 C0.03709246 3.6614236 0.0191585 1.83070127 0 0 Z " fill="#4B4B4B" transform="translate(82,10)"/>
<path d="M0 0 C3.34252724 -0.07427838 5.8035914 -0.06546953 9 1 C9 3.64 9 6.28 9 9 C8.01 9.33 7.02 9.66 6 10 C6.33 11.32 6.66 12.64 7 14 C7.66 14 8.32 14 9 14 C9 16.31 9 18.62 9 21 C1.25 21.125 1.25 21.125 -1 20 C-1.47574438 17.45975996 -1.84007547 14.99948536 -2.125 12.4375 C-2.21136719 11.72658203 -2.29773437 11.01566406 -2.38671875 10.28320312 C-2.59934783 8.52310688 -2.80072697 6.76165836 -3 5 C-2.01 5 -1.02 5 0 5 C0 3.35 0 1.7 0 0 Z " fill="#080808" transform="translate(49,3)"/>
<path d="M0 0 C2.64 0 5.28 0 8 0 C8.33 1.32 8.66 2.64 9 4 C6.69 3.67 4.38 3.34 2 3 C2 4.65 2 6.3 2 8 C1.01 8 0.02 8 -1 8 C-0.505 8.928125 -0.505 8.928125 0 9.875 C1.42810682 14.33783382 1.12475328 18.32175185 1 23 C4.3 23.33 7.6 23.66 11 24 C11 21.03 11 18.06 11 15 C11.66 15 12.32 15 13 15 C13.474375 16.11375 13.94875 17.2275 14.4375 18.375 C15.25306463 20.26710994 16.07856355 22.15712709 17 24 C16.34 24.66 15.68 25.32 15 26 C14.67 25.34 14.34 24.68 14 24 C13.67 25.32 13.34 26.64 13 28 C7.72 28 2.44 28 -3 28 C-3.77019797 24.91920814 -4.11495717 23.03533095 -4.0625 19.99609375 C-4.05476563 19.25552734 -4.04703125 18.51496094 -4.0390625 17.75195312 C-4.02617188 16.98818359 -4.01328125 16.22441406 -4 15.4375 C-3.82636684 9.64112455 -3.82636684 9.64112455 -5 4 C-3.68 4.33 -2.36 4.66 -1 5 C-0.67 3.35 -0.34 1.7 0 0 Z M-2 14 C-2 17.63 -2 21.26 -2 25 C-1.01 24.34 -0.02 23.68 1 23 C0.87625 21.700625 0.7525 20.40125 0.625 19.0625 C0.55539063 18.33160156 0.48578125 17.60070312 0.4140625 16.84765625 C0.27742188 16.23792969 0.14078125 15.62820313 0 15 C-0.66 14.67 -1.32 14.34 -2 14 Z " fill="#575757" transform="translate(47,0)"/>
<path d="M0 0 C1.26972656 -0.00257812 2.53945312 -0.00515625 3.84765625 -0.0078125 C6.9375 0.125 6.9375 0.125 7.9375 1.125 C8.02435603 2.68672745 8.04452219 4.25229344 8.03515625 5.81640625 C8.03193359 6.76064453 8.02871094 7.70488281 8.02539062 8.67773438 C8.01701172 9.67095703 8.00863281 10.66417969 8 11.6875 C7.99548828 12.68458984 7.99097656 13.68167969 7.98632812 14.70898438 C7.97450007 17.18104849 7.95801849 19.65299518 7.9375 22.125 C7.2775 22.125 6.6175 22.125 5.9375 22.125 C5.9375 23.445 5.9375 24.765 5.9375 26.125 C5.2775 26.125 4.6175 26.125 3.9375 26.125 C3.9375 24.805 3.9375 23.485 3.9375 22.125 C2.6175 22.125 1.2975 22.125 -0.0625 22.125 C-0.3925 21.135 -0.7225 20.145 -1.0625 19.125 C1.2475 19.455 3.5575 19.785 5.9375 20.125 C5.9375 14.845 5.9375 9.565 5.9375 4.125 C4.74125 4.29 3.545 4.455 2.3125 4.625 C-1.172182 5.0682811 -4.54932723 5.125 -8.0625 5.125 C-10.32816343 5.56441523 -10.32816343 5.56441523 -12.0625 6.125 C-12.3925 7.445 -12.7225 8.765 -13.0625 10.125 C-14.3825 10.125 -15.7025 10.125 -17.0625 10.125 C-17.0625 11.775 -17.0625 13.425 -17.0625 15.125 C-17.7225 14.465 -18.3825 13.805 -19.0625 13.125 C-18.6875 10.5 -18.6875 10.5 -18.0625 8.125 C-17.0725 8.125 -16.0825 8.125 -15.0625 8.125 C-15.0625 5.815 -15.0625 3.505 -15.0625 1.125 C-14.4025 2.445 -13.7425 3.765 -13.0625 5.125 C-12.44375 4.485625 -11.825 3.84625 -11.1875 3.1875 C-7.53204899 -0.36043775 -5.00846681 -0.01019017 0 0 Z " fill="#232323" transform="translate(73.0625,3.875)"/>
<path d="M0 0 C1.60875 -0.00386719 1.60875 -0.00386719 3.25 -0.0078125 C6 0.125 6 0.125 8 1.125 C8 4.755 8 8.385 8 12.125 C6.35 12.125 4.7 12.125 3 12.125 C3 9.485 3 6.845 3 4.125 C2.01 4.125 1.02 4.125 0 4.125 C0 6.765 0 9.405 0 12.125 C-0.66 12.125 -1.32 12.125 -2 12.125 C-2 12.785 -2 13.445 -2 14.125 C-3.65 14.125 -5.3 14.125 -7 14.125 C-7.33 9.835 -7.66 5.545 -8 1.125 C-5.26922124 -0.24038938 -3.04439633 -0.00731826 0 0 Z " fill="#090909" transform="translate(52,26.875)"/>
<path d="M0 0 C1.03159626 3.09478879 0.97482862 4.52631393 0.5625 7.6875 C0.46066406 8.49574219 0.35882813 9.30398437 0.25390625 10.13671875 C0.17011719 10.75160156 0.08632813 11.36648437 0 12 C0.66 12 1.32 12 2 12 C2 12.66 2 13.32 2 14 C3.32 14 4.64 14 6 14 C6.66 15.32 7.32 16.64 8 18 C8.66 16.68 9.32 15.36 10 14 C10 15.65 10 17.3 10 19 C8.68 19.33 7.36 19.66 6 20 C5.505 17.525 5.505 17.525 5 15 C3.35 15 1.7 15 0 15 C0.66 18.3 1.32 21.6 2 25 C-1.10551666 21.89448334 -1.81323934 20.10801767 -3 16 C-4.98 16 -6.96 16 -9 16 C-10.10844919 12.67465243 -9.84454356 10.37817425 -9 7 C-9.66 7 -10.32 7 -11 7 C-11.33 7.66 -11.66 8.32 -12 9 C-12 7.35 -12 5.7 -12 4 C-10.0625 3.4375 -10.0625 3.4375 -8 3 C-7 4 -7 4 -6.9375 7.5625 C-6.958125 8.696875 -6.97875 9.83125 -7 11 C-5.68 11.33 -4.36 11.66 -3 12 C-3.03480469 11.38511719 -3.06960937 10.77023438 -3.10546875 10.13671875 C-3.13253906 9.32847656 -3.15960938 8.52023438 -3.1875 7.6875 C-3.22230469 6.88699219 -3.25710937 6.08648437 -3.29296875 5.26171875 C-2.93801608 2.52148416 -2.10633718 1.70828921 0 0 Z M-2 10 C-2 11.32 -2 12.64 -2 14 C-1.01 13.67 -0.02 13.34 1 13 C0.34 13 -0.32 13 -1 13 C-1.33 12.01 -1.66 11.02 -2 10 Z " fill="#505050" transform="translate(63,27)"/>
<path d="M0 0 C0.02685095 2.47923801 0.04676547 4.9581884 0.0625 7.4375 C0.07087891 8.14455078 0.07925781 8.85160156 0.08789062 9.58007812 C0.09653588 11.38693559 0.05220011 13.19387603 0 15 C-1 16 -1 16 -3.5625 16.0625 C-4.366875 16.041875 -5.17125 16.02125 -6 16 C-6.06058594 15.25234375 -6.12117188 14.5046875 -6.18359375 13.734375 C-6.26738281 12.74953125 -6.35117187 11.7646875 -6.4375 10.75 C-6.51871094 9.77546875 -6.59992187 8.8009375 -6.68359375 7.796875 C-6.95074584 5.43538247 -7.35371968 3.28098935 -8 1 C-5.29120665 -0.35439668 -2.99066732 -0.06501451 0 0 Z " fill="#0B0B0B" transform="translate(26,25)"/>
<path d="M0 0 C0.33 0 0.66 0 1 0 C1.07347656 0.87011719 1.07347656 0.87011719 1.1484375 1.7578125 C1.59649405 6.43923092 2.298021 10.57485459 4 15 C2.27327966 15.36590746 0.54346345 15.71722195 -1.1875 16.0625 C-2.63189453 16.35833984 -2.63189453 16.35833984 -4.10546875 16.66015625 C-7.04920209 17.00577676 -9.12773397 16.5841897 -12 16 C-14.67676547 17.37249963 -14.67676547 17.37249963 -17 19 C-17.66 19 -18.32 19 -19 19 C-19.33 18.01 -19.66 17.02 -20 16 C-15.81965215 12.81497307 -13.28685274 11.41257192 -8 12 C-7.01 12.33 -6.02 12.66 -5 13 C-2.3430809 12.12085312 -2.3430809 12.12085312 0 11 C-0.37125 10.113125 -0.7425 9.22625 -1.125 8.3125 C-2.10784228 4.59173995 -1.76062164 3.32561865 0 0 Z " fill="#404040" transform="translate(23,10)"/>
<path d="M0 0 C1.32 0.66 2.64 1.32 4 2 C4 3.32 4 4.64 4 6 C3.34 6 2.68 6 2 6 C1.90912109 7.06541016 1.90912109 7.06541016 1.81640625 8.15234375 C1.73261719 9.07144531 1.64882813 9.99054687 1.5625 10.9375 C1.48128906 11.85402344 1.40007813 12.77054688 1.31640625 13.71484375 C1 16 1 16 0 17 C-2.33297433 17.04092937 -4.66705225 17.04241723 -7 17 C-7.33 16.01 -7.66 15.02 -8 14 C-8.33 14.99 -8.66 15.98 -9 17 C-11.31 17 -13.62 17 -16 17 C-16 16.01 -16 15.02 -16 14 C-12.535 13.505 -12.535 13.505 -9 13 C-9 10.03 -9 7.06 -9 4 C-8.01 4 -7.02 4 -6 4 C-6 7.63 -6 11.26 -6 15 C-4.35 14.67 -2.7 14.34 -1 14 C-0.67 9.38 -0.34 4.76 0 0 Z " fill="#545454" transform="translate(26,26)"/>
<path d="M0 0 C3.0625 0.125 3.0625 0.125 5.0625 1.125 C5.825625 0.939375 6.58875 0.75375 7.375 0.5625 C10.61699564 0.03473327 12.07721362 0.90026712 15.0625 2.125 C17.30490782 1.83760075 17.30490782 1.83760075 19.0625 1.125 C19.0625 1.785 19.0625 2.445 19.0625 3.125 C20.0525 3.455 21.0425 3.785 22.0625 4.125 C20.46200296 4.51536513 18.85687629 4.88678619 17.25 5.25 C16.35667969 5.45882813 15.46335937 5.66765625 14.54296875 5.8828125 C12.0625 6.125 12.0625 6.125 9.0625 4.125 C7.05900739 4.43665441 5.05923484 4.77263503 3.0625 5.125 C-0.3125 4.6875 -0.3125 4.6875 -2.9375 4.125 C-3.2675 4.785 -3.5975 5.445 -3.9375 6.125 C-3.980221 4.45888095 -3.97813832 2.79117115 -3.9375 1.125 C-2.9375 0.125 -2.9375 0.125 0 0 Z " fill="#232323" transform="translate(85.9375,3.875)"/>
<path d="M0 0 C2.64 0 5.28 0 8 0 C8.48192771 5.42168675 8.48192771 5.42168675 6.4375 7.875 C3.08586365 9.42190908 0.65177642 9.39126176 -3 9 C-5.4375 7.5 -5.4375 7.5 -7 6 C-6.67 4.68 -6.34 3.36 -6 2 C-5.46375 2.309375 -4.9275 2.61875 -4.375 2.9375 C-1.6015043 4.17827439 1.00042837 4.5909675 4 5 C3.67 4.34 3.34 3.68 3 3 C2.01 3 1.02 3 0 3 C0 2.01 0 1.02 0 0 Z " fill="#494949" transform="translate(35,34)"/>
<path d="M0 0 C0 3.96 0 7.92 0 12 C-0.66 11.67 -1.32 11.34 -2 11 C-3.99960012 10.960008 -6.00047242 10.95653201 -8 11 C-8.3125 8.3125 -8.3125 8.3125 -8 5 C-3.97826087 0 -3.97826087 0 0 0 Z " fill="#0A0A0A" transform="translate(114,28)"/>
<path d="M0 0 C0.33 0 0.66 0 1 0 C1.36103152 6.3782235 1.36103152 6.3782235 -0.125 8.9375 C-2.91435199 10.51813279 -4.84149685 10.37902038 -8 10 C-10.875 8.8125 -10.875 8.8125 -13 7 C-13.3125 4.3125 -13.3125 4.3125 -13 2 C-11.35 2 -9.7 2 -8 2 C-7.67 3.32 -7.34 4.64 -7 6 C-6.01 6 -5.02 6 -4 6 C-3.566875 5.071875 -3.566875 5.071875 -3.125 4.125 C-2 2 -2 2 0 0 Z " fill="#030303" transform="translate(76,40)"/>
<path d="M0 0 C0.66 0.33 1.32 0.66 2 1 C1.34 4.96 0.68 8.92 0 13 C-1.98 13.33 -3.96 13.66 -6 14 C-7.28317892 10.15046324 -7.06643637 7.05261865 -7 3 C-6.01 3.495 -6.01 3.495 -5 4 C-3.35 2.68 -1.7 1.36 0 0 Z " fill="#020202" transform="translate(8,26)"/>
<path d="M0 0 C3.96 0 7.92 0 12 0 C12 0.33 12 0.66 12 1 C9.36 1.33 6.72 1.66 4 2 C3.67 8.6 3.34 15.2 3 22 C2.67 21.01 2.34 20.02 2 19 C1.34 19 0.68 19 0 19 C0 12.73 0 6.46 0 0 Z " fill="#0F0F0F" transform="translate(0,0)"/>
<path d="M0 0 C0.66 0.33 1.32 0.66 2 1 C2 7.93 2 14.86 2 22 C1.34 22 0.68 22 0 22 C0 23.32 0 24.64 0 26 C-0.66 26 -1.32 26 -2 26 C-2 24.68 -2 23.36 -2 22 C-3.32 22 -4.64 22 -6 22 C-6.33 21.01 -6.66 20.02 -7 19 C-4.69 19.33 -2.38 19.66 0 20 C0 13.4 0 6.8 0 0 Z " fill="#484848" transform="translate(79,4)"/>
<path d="M0 0 C0.66 0 1.32 0 2 0 C2 6.6 2 13.2 2 20 C1.67 19.34 1.34 18.68 1 18 C0.01 18 -0.98 18 -2 18 C-2.33 18.66 -2.66 19.32 -3 20 C-3.33 19.01 -3.66 18.02 -4 17 C-5.65 17 -7.3 17 -9 17 C-9 19.31 -9 21.62 -9 24 C-11 21 -11 21 -10.625 17.8125 C-10.41875 16.884375 -10.2125 15.95625 -10 15 C-6.7 15.33 -3.4 15.66 0 16 C0 10.72 0 5.44 0 0 Z " fill="#5C5C5C" transform="translate(97,25)"/>
<path d="M0 0 C2.0625 0.4375 2.0625 0.4375 4 1 C4 3.31 4 5.62 4 8 C5.65 8.33 7.3 8.66 9 9 C8.67 10.32 8.34 11.64 8 13 C6.02 13 4.04 13 2 13 C0.89155081 9.67465243 1.15545644 7.37817425 2 4 C1.34 4 0.68 4 0 4 C-0.33 4.66 -0.66 5.32 -1 6 C-1.042721 4.33388095 -1.04063832 2.66617115 -1 1 C-0.67 0.67 -0.34 0.34 0 0 Z " fill="#454545" transform="translate(52,30)"/>
<path d="M0 0 C0.66 0 1.32 0 2 0 C2.474375 1.11375 2.94875 2.2275 3.4375 3.375 C4.25306463 5.26710994 5.07856355 7.15712709 6 9 C5.34 9.66 4.68 10.32 4 11 C3.67 10.34 3.34 9.68 3 9 C2.67 10.32 2.34 11.64 2 13 C-0.97 12.67 -3.94 12.34 -7 12 C-7.33 11.01 -7.66 10.02 -8 9 C-5.36 9 -2.72 9 0 9 C0 6.03 0 3.06 0 0 Z " fill="#444444" transform="translate(58,15)"/>
<path d="M0 0 C2.5211871 1.63877161 3.56814198 2.40972907 5 5 C5.60924099 9.70529873 5.71422684 14.30395854 5 19 C4.01 19.66 3.02 20.32 2 21 C1.93941406 19.73542969 1.87882812 18.47085937 1.81640625 17.16796875 C1.73199096 15.50780129 1.64734345 13.84764563 1.5625 12.1875 C1.52318359 11.35412109 1.48386719 10.52074219 1.44335938 9.66210938 C1.40146484 8.85966797 1.35957031 8.05722656 1.31640625 7.23046875 C1.26141968 6.12288208 1.26141968 6.12288208 1.20532227 4.99291992 C1.05157859 2.792505 1.05157859 2.792505 0 0 Z " fill="#242424" transform="translate(109,5)"/>
<path d="M0 0 C0 0.99 0 1.98 0 3 C-0.60328125 3.12117187 -1.2065625 3.24234375 -1.828125 3.3671875 C-2.62734375 3.53476563 -3.4265625 3.70234375 -4.25 3.875 C-5.43335938 4.11863281 -5.43335938 4.11863281 -6.640625 4.3671875 C-8.96831144 4.99150075 -10.89031952 5.84838542 -13 7 C-12.73136414 3.68682445 -12.40940132 2.36123646 -9.875 0.125 C-6.21463337 -1.30731738 -3.79126394 -0.8177236 0 0 Z " fill="#1D1D1D" transform="translate(37,5)"/>
<path d="M0 0 C-0.66 1.65 -1.32 3.3 -2 5 C-2.69867188 4.97679687 -3.39734375 4.95359375 -4.1171875 4.9296875 C-5.48230469 4.90261719 -5.48230469 4.90261719 -6.875 4.875 C-7.77992187 4.85179687 -8.68484375 4.82859375 -9.6171875 4.8046875 C-12.18806994 4.75675164 -12.18806994 4.75675164 -14 7 C-14.66 5.35 -15.32 3.7 -16 2 C-10.54538831 0.61470179 -5.63281599 -0.2396943 0 0 Z " fill="#363636" transform="translate(44,23)"/>
<path d="M0 0 C2.05078125 0.03255208 4.1015625 0.06510417 6.15234375 0.09765625 C6.48234375 1.41765625 6.81234375 2.73765625 7.15234375 4.09765625 C4.84234375 3.76765625 2.53234375 3.43765625 0.15234375 3.09765625 C0.15234375 4.74765625 0.15234375 6.39765625 0.15234375 8.09765625 C-0.83765625 8.09765625 -1.82765625 8.09765625 -2.84765625 8.09765625 C-2.51765625 9.74765625 -2.18765625 11.39765625 -1.84765625 13.09765625 C-3.84765625 11.09765625 -3.84765625 11.09765625 -3.859375 8.75 C-3.75238281 7.85410156 -3.64539062 6.95820312 -3.53515625 6.03515625 C-3.43589844 5.13667969 -3.33664063 4.23820313 -3.234375 3.3125 C-2.6807412 0.14168822 -2.6807412 0.14168822 0 0 Z " fill="#363636" transform="translate(48.84765625,-0.09765625)"/>
<path d="M0 0 C0.99 0.33 1.98 0.66 3 1 C2.67 2.65 2.34 4.3 2 6 C1.67 6 1.34 6 1 6 C0.34 8.97 -0.32 11.94 -1 15 C-3.31 15 -5.62 15 -8 15 C-8.33 13.02 -8.66 11.04 -9 9 C-8.13375 9.495 -8.13375 9.495 -7.25 10 C-4.80116138 11.27075898 -4.80116138 11.27075898 -1 11 C-1.01160156 10.37351562 -1.02320313 9.74703125 -1.03515625 9.1015625 C-1.04417969 8.28429688 -1.05320312 7.46703125 -1.0625 6.625 C-1.07410156 5.81289063 -1.08570313 5.00078125 -1.09765625 4.1640625 C-1 2 -1 2 0 0 Z " fill="#383838" transform="translate(9,28)"/>
<path d="M0 0 C1.65 0 3.3 0 5 0 C4.67 0.66 4.34 1.32 4 2 C3.67 2 3.34 2 3 2 C3 5.63 3 9.26 3 13 C1.68 13.33 0.36 13.66 -1 14 C-0.67 9.38 -0.34 4.76 0 0 Z " fill="#343434" transform="translate(100,13)"/>
<path d="M0 0 C0.33 0 0.66 0 1 0 C1.02708567 1.60407328 1.04643483 3.2082785 1.0625 4.8125 C1.07410156 5.70582031 1.08570313 6.59914063 1.09765625 7.51953125 C1 10 1 10 0 13 C-2.31 13 -4.62 13 -7 13 C-7 12.01 -7 11.02 -7 10 C-3.535 9.505 -3.535 9.505 0 9 C0 6.03 0 3.06 0 0 Z " fill="#444444" transform="translate(17,30)"/>
<path d="M0 0 C0.66 1.32 1.32 2.64 2 4 C2.66 3.34 3.32 2.68 4 2 C3.67 4.31 3.34 6.62 3 9 C1.35 9 -0.3 9 -2 9 C-2 10.65 -2 12.3 -2 14 C-2.66 13.34 -3.32 12.68 -4 12 C-3.625 9.375 -3.625 9.375 -3 7 C-2.01 7 -1.02 7 0 7 C0 4.69 0 2.38 0 0 Z " fill="#4F4F4F" transform="translate(58,5)"/>
<path d="M0 0 C4.875 1.75 4.875 1.75 6 4 C6.99 4.33 7.98 4.66 9 5 C9 5.66 9 6.32 9 7 C2.25 6.25 2.25 6.25 0 4 C0 2.68 0 1.36 0 0 Z " fill="#353535" transform="translate(28,36)"/>
<path d="M0 0 C0.86625 0.2784375 0.86625 0.2784375 1.75 0.5625 C4.20692525 1.04023546 5.64397534 0.75729364 8 0 C8 0.66 8 1.32 8 2 C8.99 2.33 9.98 2.66 11 3 C7.7 3.66 4.4 4.32 1 5 C0.67 3.35 0.34 1.7 0 0 Z " fill="#343434" transform="translate(97,5)"/>
<path d="M0 0 C0.33 0 0.66 0 1 0 C1.33 1.65 1.66 3.3 2 5 C3.32 4.67 4.64 4.34 6 4 C6.33 5.32 6.66 6.64 7 8 C4.69 8.33 2.38 8.66 0 9 C-1.10844919 5.67465243 -0.84454356 3.37817425 0 0 Z " fill="#4C4C4C" transform="translate(44,19)"/>
<path d="M0 0 C0.66 0 1.32 0 2 0 C2 3.63 2 7.26 2 11 C1.01 11 0.02 11 -1 11 C-0.67 7.37 -0.34 3.74 0 0 Z " fill="#131313" transform="translate(11,29)"/>
<path d="M0 0 C1.485 0.99 1.485 0.99 3 2 C5.0492094 2.45139459 5.0492094 2.45139459 7.1875 2.625 C8.445625 2.74875 9.70375 2.8725 11 3 C11 3.33 11 3.66 11 4 C9.02 4 7.04 4 5 4 C5 4.66 5 5.32 5 6 C3.35 5.67 1.7 5.34 0 5 C-0.33 4.01 -0.66 3.02 -1 2 C-0.67 1.34 -0.34 0.68 0 0 Z " fill="#292929" transform="translate(88,47)"/>
<path d="M0 0 C0.33 0 0.66 0 1 0 C1.04898437 0.58007812 1.09796875 1.16015625 1.1484375 1.7578125 C1.59649405 6.43923092 2.298021 10.57485459 4 15 C-0.71014493 10.77294686 -0.71014493 10.77294686 -1.9375 7.5 C-2.01135248 4.54590086 -1.28171015 2.63881502 0 0 Z " fill="#3D3D3D" transform="translate(23,10)"/>
<path d="M0 0 C1.67542976 0.28604898 3.34385343 0.61781233 5 1 C5 2.32 5 3.64 5 5 C3.35 5 1.7 5 0 5 C-0.5625 3.0625 -0.5625 3.0625 -1 1 C-0.67 0.67 -0.34 0.34 0 0 Z " fill="#DBDBDB" transform="translate(32,13)"/>
<path d="M0 0 C0.99 0 1.98 0 3 0 C3 1.32 3 2.64 3 4 C1.02 4.99 -0.96 5.98 -3 7 C-2.25 2.25 -2.25 2.25 0 0 Z " fill="#2A2A2A" transform="translate(27,5)"/>
<path d="M0 0 C2.0625 0.4375 2.0625 0.4375 4 1 C4 3.31 4 5.62 4 8 C3.67 6.68 3.34 5.36 3 4 C2.01 4 1.02 4 0 4 C-0.33 4.66 -0.66 5.32 -1 6 C-1.042721 4.33388095 -1.04063832 2.66617115 -1 1 C-0.67 0.67 -0.34 0.34 0 0 Z " fill="#2D2D2D" transform="translate(52,30)"/>
<path d="M0 0 C0.33 1.32 0.66 2.64 1 4 C0.01 3.67 -0.98 3.34 -2 3 C-4.05893621 2.77674186 -6.12233653 2.59294241 -8.1875 2.4375 C-9.81751953 2.31181641 -9.81751953 2.31181641 -11.48046875 2.18359375 C-12.31191406 2.12300781 -13.14335937 2.06242188 -14 2 C-14 1.67 -14 1.34 -14 1 C-9.27616037 0.34843591 -4.78025483 -0.11950637 0 0 Z " fill="#2C2C2C" transform="translate(18,0)"/>
<path d="M0 0 C0.33 0 0.66 0 1 0 C1 3.63 1 7.26 1 11 C-0.65 11 -2.3 11 -4 11 C-3.34 10.67 -2.68 10.34 -2 10 C-2.04125 9.0925 -2.0825 8.185 -2.125 7.25 C-2.00468444 4.1217954 -1.6085292 2.61385994 0 0 Z " fill="#0E0E0E" transform="translate(59,28)"/>
<path d="M0 0 C2.475 0.99 2.475 0.99 5 2 C5 3.32 5 4.64 5 6 C3.35 6 1.7 6 0 6 C0 4.02 0 2.04 0 0 Z " fill="#060606" transform="translate(38,27)"/>
<path d="M0 0 C1.98 0.495 1.98 0.495 4 1 C4 2.32 4 3.64 4 5 C2.35 5 0.7 5 -1 5 C-0.67 3.35 -0.34 1.7 0 0 Z " fill="#D9D9D9" transform="translate(68,13)"/>
<path d="M0 0 C0.33 0 0.66 0 1 0 C2.17076699 3.98060777 3.25749403 7.91621717 4 12 C2 10.5 2 10.5 0 8 C-0.35800135 5.24128373 -0.18660165 2.79902476 0 0 Z " fill="#4B4B4B" transform="translate(80,30)"/>
<path d="M0 0 C2.64 0 5.28 0 8 0 C7.67 0.99 7.34 1.98 7 3 C5.02 3 3.04 3 1 3 C0.67 2.01 0.34 1.02 0 0 Z " fill="#353535" transform="translate(50,24)"/>
<path d="M0 0 C1.98 0 3.96 0 6 0 C6.33 0.99 6.66 1.98 7 3 C4.69 3.33 2.38 3.66 0 4 C0 2.68 0 1.36 0 0 Z " fill="#3F3F3F" transform="translate(65,24)"/>
<path d="M0 0 C0.33 0.66 0.66 1.32 1 2 C-5.625 2.25 -5.625 2.25 -9 0 C-5.88173308 -1.55913346 -3.32926126 -0.66585225 0 0 Z " fill="#2B2B2B" transform="translate(96,39)"/>
<path d="M0 0 C0.66 0 1.32 0 2 0 C2 2.64 2 5.28 2 8 C1.01 7.67 0.02 7.34 -1 7 C-0.67 4.69 -0.34 2.38 0 0 Z " fill="#0B0B0B" transform="translate(2,32)"/>
<path d="M0 0 C2 2 2 2 2 5 C1.01 5 0.02 5 -1 5 C-1.33 4.34 -1.66 3.68 -2 3 C-2.99 2.34 -3.98 1.68 -5 1 C-2.625 0.375 -2.625 0.375 0 0 Z " fill="#353535" transform="translate(112,38)"/>
<path d="M0 0 C1.98 0 3.96 0 6 0 C5.34 1.65 4.68 3.3 4 5 C3.34 5 2.68 5 2 5 C1.34 3.35 0.68 1.7 0 0 Z " fill="#2A2A2A" transform="translate(38,23)"/>
<path d="M0 0 C1.32 0 2.64 0 4 0 C4.66 1.65 5.32 3.3 6 5 C5.01 5 4.02 5 3 5 C3 4.34 3 3.68 3 3 C2.01 3 1.02 3 0 3 C0 2.01 0 1.02 0 0 Z " fill="#181818" transform="translate(105,4)"/>
</svg>
